<?xml version="1.0" ?><svg id="Layer_1" style="enable-background:new 0 0 250 250;" version="1.1" viewBox="0 0 250 250" xml:space="preserve" xmlns="http://www.w3.org/2000/svg" xmlns:xlink="http://www.w3.org/1999/xlink"><style type="text/css">
	.st0{fill:#FCC12D;}
	.st1{fill:#46E6F2;}
	.st2{fill:none;stroke:#231F20;stroke-width:3;stroke-linecap:round;stroke-linejoin:round;stroke-miterlimit:10;}
	.st3{fill:#FFFFFF;}
	.st4{fill:none;stroke:#FFFFFF;stroke-width:3;stroke-linecap:round;stroke-linejoin:round;stroke-miterlimit:10;}
</style><path class="st0" d="M167.1,111c0-24.2-20.9-43.5-45.7-40.7c-18.5,2.1-33.6,16.9-36,35.4  c-1.5,11.5,1.9,22.2,8.3,30.4c7.3,9.4,11,21.2,11,33.2v1.7h42.8v-1.7c0-12.4,4.4-24.2,11.7-34.1C164.2,128.4,167.1,120.1,167.1,111z  " id="XMLID_19_"/><path class="st1" d="M146.2,182h-40.4c-3,0-5.5-2.4-5.5-5.5l0,0c0-3,2.4-5.5,5.5-5.5h40.4c3,0,5.5,2.4,5.5,5.5l0,0  C151.7,179.5,149.2,182,146.2,182z" id="XMLID_18_"/><path class="st1" d="M143.2,192.8h-34.5c-2.8,0-5-2.3-5-5v-0.6c0-2.8,2.3-5,5-5h34.5c2.8,0,5,2.3,5,5v0.6  C148.3,190.5,146,192.8,143.2,192.8z" id="XMLID_17_"/><path class="st1" d="M111.8,195.4v0.1c0,4.5,3.6,8.1,8.1,8.1h12.2c4.5,0,8.1-3.6,8.1-8.1v-0.1c0-1.4-1.2-2.6-2.6-2.6  h-23.2C113,192.8,111.8,194,111.8,195.4z" id="XMLID_16_"/><path class="st2" d="M164,107.9c0-24.2-20.9-43.5-45.7-40.7c-18.5,2.1-33.6,16.9-36,35.4  c-1.5,11.5,1.9,22.2,8.3,30.4c7.3,9.4,11,21.2,11,33.2v1.7h42.8v-1.7c0-12.4,4.4-24.2,11.7-34.1C161.1,125.3,164,116.9,164,107.9z" id="XMLID_15_"/><path class="st2" d="M140.1,189.6h-34.5c-2.8,0-5-2.3-5-5V184c0-2.8,2.3-5,5-5h34.5c2.8,0,5,2.3,5,5v0.6  C145.1,187.4,142.9,189.6,140.1,189.6z" id="XMLID_14_"/><path class="st2" d="M108.6,192.2v0.1c0,4.5,3.6,8.1,8.1,8.1h12.2c4.5,0,8.1-3.6,8.1-8.1v-0.1c0-1.4-1.2-2.6-2.6-2.6  h-23.2C109.8,189.6,108.6,190.8,108.6,192.2z" id="XMLID_13_"/><ellipse class="st3" cx="102.1" cy="91.9" id="XMLID_12_" rx="6.9" ry="11.8" transform="matrix(0.7723 0.6352 -0.6352 0.7723 81.5971 -43.9285)"/><polyline class="st4" id="XMLID_11_" points="132.1,130 123,167.1 114,130 "/><path class="st4" d="M106.7,125.5c4.1,0,4.1,3.4,8.1,3.4c4.1,0,4.1-3.4,8.1-3.4c4.1,0,4.1,3.4,8.1,3.4  c4.1,0,4.1-3.4,8.1-3.4" id="XMLID_10_"/><line class="st2" id="XMLID_9_" x1="123" x2="123" y1="56.5" y2="40.8"/><line class="st2" id="XMLID_8_" x1="150.9" x2="158" y1="60.2" y2="46.2"/><line class="st2" id="XMLID_7_" x1="169.9" x2="179.3" y1="75.9" y2="69.7"/><line class="st2" id="XMLID_6_" x1="176.7" x2="184.3" y1="97.8" y2="96.6"/><line class="st2" id="XMLID_5_" x1="95.1" x2="88" y1="60.2" y2="46.2"/><line class="st2" id="XMLID_4_" x1="76.1" x2="66.7" y1="75.9" y2="69.7"/><line class="st2" id="XMLID_3_" x1="69.3" x2="61.7" y1="97.8" y2="96.6"/><path class="st2" d="M143,178.8h-40.4c-3,0-5.5-2.4-5.5-5.5v0c0-3,2.4-5.5,5.5-5.5H143c3,0,5.5,2.4,5.5,5.5v0  C148.5,176.4,146,178.8,143,178.8z" id="XMLID_2_"/></svg>